<svg width="34" height="40" viewBox="0 0 34 40" fill="none" xmlns="http://www.w3.org/2000/svg">
<path fill-rule="evenodd" clip-rule="evenodd" d="M32.4258 30.638C31.8522 31.9733 31.1438 33.2465 30.3118 34.438C29.5286 35.6323 28.6154 36.7361 27.5887 37.729C26.6555 38.6618 25.407 39.2116 24.0887 39.27C22.972 39.221 21.8751 38.9589 20.8568 38.498C19.7573 38.0191 18.5756 37.7579 17.3767 37.729C16.1457 37.7533 14.931 38.0143 13.7987 38.498C12.8206 38.9395 11.7755 39.2142 10.7068 39.311C9.34802 39.2946 8.05517 38.723 7.12878 37.729C6.05749 36.701 5.10253 35.5585 4.28076 34.322C2.99743 32.4815 1.98352 30.4672 1.26977 28.34C0.455319 26.05 0.0278284 23.6404 0.00475711 21.21C-0.059696 18.8262 0.531857 16.4705 1.71484 14.4C2.57641 12.9044 3.80957 11.6564 5.2948 10.777C6.75891 9.90094 8.42956 9.4295 10.1357 9.41101C11.4241 9.4873 12.6901 9.78186 13.8798 10.282C14.828 10.6996 15.8263 10.993 16.8497 11.155C17.9781 10.9196 19.081 10.575 20.1428 10.126C21.5621 9.54895 23.0874 9.27802 24.6188 9.33099C27.5753 9.40753 30.3275 10.8567 32.0637 13.251C29.2925 14.7238 27.5919 17.6367 27.6717 20.774C27.6421 23.1525 28.6344 25.4294 30.3967 27.027C31.1876 27.7837 32.1106 28.389 33.1197 28.813C32.9011 29.4464 32.6698 30.0537 32.4258 30.635V30.638ZM24.8397 0.786987C24.8136 2.82031 24.0496 4.7749 22.6898 6.28693C20.9618 8.30701 18.8717 9.474 16.6057 9.28699C16.5753 9.03986 16.5599 8.79102 16.5598 8.54199C16.6284 6.47534 17.4381 4.50232 18.8407 2.98303C19.6191 2.1106 20.564 1.4024 21.6197 0.900024C22.6083 0.389587 23.6894 0.0834961 24.7987 0C24.8269 0.261047 24.8406 0.523438 24.8397 0.786011V0.786987Z" fill="white"/>
</svg>
