<svg width="51" height="50" viewBox="0 0 51 50" fill="none" xmlns="http://www.w3.org/2000/svg">
<circle cx="25.4194" cy="25" r="25" fill="#8940FC"/>
<path fill-rule="evenodd" clip-rule="evenodd" d="M39.2096 24.476C39.2146 18.0466 34.8086 12.4537 28.5571 10.9536C22.3055 9.45333 15.8412 12.4376 12.9281 18.1687C10.0149 23.8997 11.4137 30.8809 16.3099 35.0473L14.1267 39.781L25.3147 38.3811L36.5027 39.781L34.3186 35.049C37.4261 32.4167 39.2156 28.5485 39.2097 24.476H39.2096ZM24.1566 36.19L17.9757 36.962L21.0666 30.262H24.1566V36.19ZM24.1566 27.9491H22.1356L24.0957 23.702C24.8873 23.9614 25.7409 23.9614 26.5326 23.702L28.4927 27.9491H24.1566ZM23.5776 19.844C23.5792 19.0308 24.1446 18.3276 24.9386 18.1515C25.7324 17.9754 26.5422 18.3736 26.8873 19.1099C27.2325 19.8462 27.0207 20.7234 26.3775 21.221C25.7455 21.6823 24.8878 21.6822 24.2556 21.221C23.8283 20.8919 23.5779 20.3833 23.5776 19.844ZM26.4726 36.19V30.265H29.5616L32.6527 36.9651L26.4726 36.19ZM33.3047 32.847L31.1046 28.081V27.95H31.0447L28.4746 22.3811C29.805 20.7246 29.6305 18.322 28.0748 16.8752C26.5191 15.4283 24.1102 15.4283 22.5544 16.8752C20.9988 18.322 20.8243 20.7246 22.1546 22.3811L19.5857 27.948H19.5256V28.081L17.3257 32.847C13.899 29.5809 12.8056 24.5578 14.5647 20.1629C16.3237 15.768 20.5808 12.8866 25.3147 12.8866C30.0484 12.8866 34.3055 15.7682 36.0646 20.1629C37.8236 24.5578 36.7302 29.5809 33.3036 32.847H33.3047Z" fill="white"/>
</svg>
