<svg width="50" height="50" viewBox="0 0 50 50" fill="none" xmlns="http://www.w3.org/2000/svg">
<circle cx="25" cy="25" r="25" fill="#61BCFE"/>
<path fill-rule="evenodd" clip-rule="evenodd" d="M36.4401 18.886C37.605 18.053 38.6085 17.0147 39.4011 15.822H39.4011C38.3182 16.2939 37.1732 16.6078 36.0011 16.754C37.2379 16.0212 38.163 14.8602 38.6011 13.491C37.4436 14.1771 36.1774 14.6603 34.8571 14.92C33.2029 13.1434 30.6293 12.5613 28.3716 13.4531C26.1138 14.3448 24.6327 16.5285 24.6391 18.956C24.6346 19.408 24.6805 19.8591 24.7761 20.301C20.0256 20.0678 15.5995 17.822 12.6061 14.126C11.0257 16.8217 11.8212 20.282 14.4201 22.017C13.4857 21.9917 12.571 21.7424 11.7531 21.29V21.355C11.7573 24.1644 13.7318 26.5857 16.4831 27.155C15.978 27.2882 15.4574 27.3535 14.9351 27.3489C14.5602 27.3559 14.1857 27.3224 13.8181 27.249C14.6003 29.6497 16.81 31.2973 19.3341 31.3619C17.2439 32.9964 14.6664 33.8833 12.0131 33.881C11.5412 33.8842 11.0696 33.8574 10.6011 33.801C13.3009 35.5402 16.4466 36.4602 19.6581 36.45C24.2563 36.4819 28.6639 34.6152 31.8405 31.2906C35.0172 27.9659 36.6813 23.4779 36.4401 18.886Z" fill="white"/>
</svg>
